<svg width="20" height="20" viewBox="0 0 20 20" fill="none" xmlns="http://www.w3.org/2000/svg">
<rect width="20" height="20" fill="#E3E3E3"/>
<g id="&#208;&#154;&#208;&#190;&#209;&#128;&#208;&#183;&#208;&#184;&#208;&#189;&#208;&#176;-002">
<rect width="1400" height="2045" transform="translate(-264 -311)" fill="#F6F6FA"/>
<g id="Frame 277132152">
<g id="Frame 277132152_2">
<g id="Frame 277132230">
<g id="&#208;&#146; &#208;&#189;&#208;&#176;&#208;&#187;&#208;&#184;&#209;&#135;&#208;&#184;&#208;&#184;">
<g id="Frame 277132128">
<g id="Frame 4152">
<g id="Frame 277132153">
<g id="&#208;&#157;&#208;&#176;&#208;&#183;&#208;&#178;&#208;&#176;&#208;&#189;&#208;&#184;&#208;&#181; &#208;&#184; &#209;&#133;&#208;&#176;&#209;&#128;&#208;&#176;&#208;&#186;&#209;&#130;&#208;&#181;&#209;&#128;&#208;&#184;&#209;&#129;&#209;&#130;&#208;&#184;&#208;&#186;&#208;&#184;">
<g id="Frame 277132153_2">
<g id="Frame 3863">
<g id="icon-20">
<circle id="Ellipse 179" cx="10" cy="10" r="7.5" stroke="#9797AF"/>
<path id="i" d="M9.88867 7.58691C9.62826 7.58691 9.41504 7.51042 9.24902 7.35742C9.08301 7.20117 9 7.01074 9 6.78613C9 6.55501 9.08301 6.36621 9.24902 6.21973C9.41504 6.07324 9.62826 6 9.88867 6C10.1523 6 10.3656 6.07324 10.5283 6.21973C10.6943 6.36621 10.7773 6.55501 10.7773 6.78613C10.7773 7.02051 10.6943 7.21257 10.5283 7.3623C10.3656 7.51204 10.1523 7.58691 9.88867 7.58691ZM10.6504 13.3779H9.10742V8.37793H10.6504V13.3779Z" fill="#9797AF"/>
</g>
</g>
</g>
</g>
</g>
</g>
</g>
</g>
</g>
</g>
</g>
</g>
</svg>
